PathFileType	4	(X/Y/Z)	/Users/itak/Documents/Research/Walk-IL/dataset/trc/00584_00009.trc
DataRate	CameraRate	NumFrames	NumMarkers	Units	OrigDataRate	OrigDataStartFrame	OrigNumFrames
100.000000	100.000000	4	71	mm	100.000000	11	95
Frame#	Time	RFHD			LBHD			STRN			CLAV			RWPS			LSHO			LBAK			RFRA			RAEL			RAOL			RBHD			C7			RUPA			LTOE			RWTS			RSHO			LMT1			RBAK			LUPA			LWTS			RHIP			RKNE			LWPS			LFRA			LAEL			RTIP			T10			LHIP			LAOL			RANK			LTHI			L3			LFHD			LPSI			RPSI			RTOE			RMT5			RHEE			LHEE			RMT1			RTHI			LANK			LTIP			RHTS			RASI			LHPS			LASI			RHPS			RIFD			LKNE			LHTS			LMT5			LIFD			*53			*54			*55			*56			*57			*58			*59			*60			*61			*62			*63			*64			*65			*66			*67			*68			*69			*70			
		X1	Y1	Z1	X2	Y2	Z2	X3	Y3	Z3	X4	Y4	Z4	X5	Y5	Z5	X6	Y6	Z6	X7	Y7	Z7	X8	Y8	Z8	X9	Y9	Z9	X10	Y10	Z10	X11	Y11	Z11	X12	Y12	Z12	X13	Y13	Z13	X14	Y14	Z14	X15	Y15	Z15	X16	Y16	Z16	X17	Y17	Z17	X18	Y18	Z18	X19	Y19	Z19	X20	Y20	Z20	X21	Y21	Z21	X22	Y22	Z22	X23	Y23	Z23	X24	Y24	Z24	X25	Y25	Z25	X26	Y26	Z26	X27	Y27	Z27	X28	Y28	Z28	X29	Y29	Z29	X30	Y30	Z30	X31	Y31	Z31	X32	Y32	Z32	X33	Y33	Z33	X34	Y34	Z34	X35	Y35	Z35	X36	Y36	Z36	X37	Y37	Z37	X38	Y38	Z38	X39	Y39	Z39	X40	Y40	Z40	X41	Y41	Z41	X42	Y42	Z42	X43	Y43	Z43	X44	Y44	Z44	X45	Y45	Z45	X46	Y46	Z46	X47	Y47	Z47	X48	Y48	Z48	X49	Y49	Z49	X50	Y50	Z50	X51	Y51	Z51	X52	Y52	Z52	X53	Y53	Z53	X54	Y54	Z54	X55	Y55	Z55	X56	Y56	Z56	X57	Y57	Z57	X58	Y58	Z58	X59	Y59	Z59	X60	Y60	Z60	X61	Y61	Z61	X62	Y62	Z62	X63	Y63	Z63	X64	Y64	Z64	X65	Y65	Z65	X66	Y66	Z66	X67	Y67	Z67	X68	Y68	Z68	X69	Y69	Z69	X70	Y70	Z70	X71	Y71	Z71	

12	0.11	-693.3406982421875	1465.139282226562	-275.7040100097656	-697.7119140625	1489.934326171875	-480.3387145996094	-809.7213134765625	1119.865112304688	-448.9376220703125	-776.2005004882812	1224.840576171875	-436.6309204101562	-887.4065551757812	830.04052734375	-262.3978881835938	-774.0035400390625	1339.375244140625	-608.8336181640625	-899.502197265625	1358.863891601562	-574.97705078125	-1021.731628417969	967.0354614257812	-213.4244689941406	-1045.203002929688	1017.863830566406	-204.8593292236328	-1105.7744140625	997.3975830078125	-219.7748870849609	-804.7328491210938	1498.342895507812	-354.2934875488281	-886.800048828125	1388.815185546875	-469.9769287109375	-967.170166015625	1280.80029296875	-267.1632690429688	-729.720703125	62.18805694580078	-427.9658508300781	-871.1233520507812	886.2142333984375	-320.8778991699219	-910.1575317382812	1327.171264648438	-320.4442443847656	-808.752197265625	68.66384887695312	-426.8806457519531	-1037.335205078125	1314.076171875	-433.6237487792969	-799.5057373046875	1248.372802734375	-722.8517456054688	-769.022216796875	904.1228637695312	-641.670166015625	-1164.834838867188	858.3148803710938	-400.0897216796875	-1189.887451171875	408.2591247558594	-503.1790161132812	-781.0371704101562	835.462890625	-694.9204711914062	-834.2041015625	992.945556640625	-773.7088012695312	-861.790283203125	1065.886840820312	-797.1983642578125	-1285.4560546875	330.5757446289062	-584.4869995117188	-1045.985595703125	1174.344604492188	-558.489501953125	-930.8327026367188	862.6304931640625	-700.9764404296875	-963.1005859375	1071.802368164062	-791.9144287109375	-1585.59814453125	298.0172729492188	-781.8088989257812	-798.4822998046875	649.8075561523438	-634.72265625	-1087.962036132812	1056.972778320312	-584.508544921875	-603.2133178710938	1461.765502929688	-389.7588195800781	-1097.64013671875	952.4876708984375	-665.0945434570312	-1169.7099609375	960.1589965820312	-554.7954711914062	-1480.99853515625	106.0306777954102	-765.733642578125	-1554.242309570312	174.7212066650391	-745.3772583007812	-1566.612060546875	351.3550109863281	-833.4443359375	-981.88037109375	49.60206985473633	-548.8065795898438	-1475.782104492188	162.9440460205078	-814.278564453125	-1157.286376953125	694.0875244140625	-409.7272644042969	-895.5254516601562	32.72162246704102	-561.978759765625	-812.7498779296875	262.8432006835938	-570.3711547851562	-793.8833618164062	834.0763549804688	-323.4571838378906	-1057.16357421875	865.1541748046875	-393.8295593261719	-753.8174438476562	795.6829223632812	-658.211669921875	-899.6961669921875	866.810546875	-613.0777587890625	-830.584716796875	784.8734741210938	-279.0367126464844	-767.4144287109375	762.5717163085938	-359.0188598632812	-710.3563232421875	512.3606567382812	-552.6063842773438	-718.3173217773438	846.74853515625	-624.7234497070312	-778.8477783203125	32.80329132080078	-521.6192016601562	-712.274658203125	771.994384765625	-560.80859375	nan	nan	nan	nan	nan	nan	nan	nan	nan	nan	nan	nan	nan	nan	nan	nan	nan	nan	nan	nan	nan	nan	nan	nan	nan	nan	nan	nan	nan	nan	nan	nan	nan	nan	nan	nan	nan	nan	nan	nan	nan	nan	nan	nan	nan	nan	nan	nan	nan	nan	nan	nan	nan	nan	
13	0.12	-663.212158203125	1465.1259765625	-259.2008666992188	-667.6995239257812	1489.336059570312	-463.9309692382812	-780.8128662109375	1117.992431640625	-430.1279296875	-746.9116821289062	1222.754516601562	-418.0420837402344	-882.0953369140625	824.6488037109375	-237.4389038085938	-742.4639892578125	1334.988403320312	-592.2908325195312	-867.7784423828125	1356.429809570312	-559.41943359375	-1008.80322265625	970.0302734375	-193.6642913818359	-1029.250610351562	1022.378601074219	-186.4546356201172	-1090.558837890625	1005.26904296875	-202.2417602539062	-774.7686157226562	1497.662841796875	-337.86962890625	-855.653564453125	1387.557739257812	-454.0738220214844	-939.166259765625	1281.553588867188	-250.3964233398438	-722.3612670898438	53.49723052978516	-418.353271484375	-862.6446533203125	877.94921875	-297.6589050292969	-880.7351684570312	1326.313842773438	-303.3731384277344	-801.568115234375	60.07194519042969	-417.4012451171875	-1006.870239257812	1313.912231445312	-418.1779479980469	-765.5862426757812	1238.674682617188	-703.2293090820312	-727.6237182617188	898.8931274414062	-607.7301635742188	-1132.736938476562	854.728271484375	-380.7487487792969	-1138.11328125	401.6488037109375	-467.6234436035156	-734.86669921875	828.5216064453125	-659.169921875	-791.6478881835938	980.5846557617188	-744.2249755859375	-820.905029296875	1051.481689453125	-770.9614868164062	-1235.029174804688	328.7902526855469	-548.6139526367188	-1016.387023925781	1172.618530273438	-541.7471313476562	-901.4953002929688	860.8648681640625	-683.4552001953125	-922.868896484375	1054.223754882812	-768.4476318359375	-1537.760498046875	315.3109130859375	-746.4542236328125	-774.0753784179688	640.2169189453125	-616.25927734375	-1059.299926757812	1055.00634765625	-567.2678833007812	-573.1195678710938	1461.745849609375	-373.2557373046875	-1068.749877929688	949.969482421875	-646.8440551757812	-1141.029541015625	956.1453857421875	-536.3298950195312	-1441.628295898438	117.6516952514648	-726.9852294921875	-1511.47216796875	191.3046722412109	-707.3675537109375	-1517.213989257812	366.2484741210938	-799.7296142578125	-974.731201171875	44.71247482299805	-539.3846435546875	-1434.859252929688	173.7329559326172	-776.9600219726562	-1119.269897460938	690.8248291015625	-385.870361328125	-888.3646850585938	29.71023368835449	-553.8457641601562	-800.751708984375	253.3261260986328	-556.6932983398438	-787.5462646484375	823.416259765625	-296.8074035644531	-1025.474975585938	864.0161743164062	-375.9148864746094	-708.8131713867188	790.3170166015625	-619.7303466796875	-868.3274536132812	866.8892822265625	-595.555908203125	-826.8162841796875	777.1084594726562	-251.3351898193359	-766.543701171875	748.5020141601562	-329.3202819824219	-692.4607543945312	498.8612060546875	-535.1210327148438	-675.6615600585938	844.3638305664062	-587.1473388671875	-771.208984375	30.7586841583252	-514.571533203125	-669.16259765625	771.7387084960938	-521.3661499023438	nan	nan	nan	nan	nan	nan	nan	nan	nan	nan	nan	nan	nan	nan	nan	nan	nan	nan	nan	nan	nan	nan	nan	nan	nan	nan	nan	nan	nan	nan	nan	nan	nan	nan	nan	nan	nan	nan	nan	nan	nan	nan	nan	nan	nan	nan	nan	nan	nan	nan	nan	nan	nan	nan	
14	0.13	-633.6405029296875	1464.79150390625	-242.5917663574219	-638.26953125	1488.1328125	-447.4373474121094	-752.1310424804688	1115.096313476562	-411.2180786132812	-718.1034545898438	1219.771850585938	-399.1137084960938	-877.7730102539062	821.1660766601562	-212.0365600585938	-710.6741333007812	1330.150634765625	-575.0552368164062	-836.0811767578125	1353.208740234375	-543.9166870117188	-996.914306640625	973.9229125976562	-174.1874237060547	-1014.379089355469	1027.542846679688	-168.4828338623047	-1076.14111328125	1013.553100585938	-185.4305725097656	-745.400146484375	1496.420776367188	-321.3859558105469	-824.952880859375	1385.572875976562	-438.1566772460938	-911.9601440429688	1282.05712890625	-233.8163757324219	-719.8842163085938	46.31483459472656	-412.2010803222656	-855.1943359375	871.3978881835938	-273.8392028808594	-851.9903564453125	1325.093017578125	-286.3721313476562	-799.2312622070312	52.75024795532227	-411.4367065429688	-976.7589111328125	1312.7236328125	-403.2288818359375	-730.86328125	1228.83544921875	-682.8350219726562	-685.83251953125	895.9931030273438	-572.4995727539062	-1100.776733398438	849.9920654296875	-361.7779235839844	-1083.869750976562	395.8409118652344	-430.4265441894531	-687.9207763671875	823.8494873046875	-621.490966796875	-748.0797119140625	969.5733642578125	-713.5562744140625	-779.0143432617188	1037.985473632812	-743.84326171875	-1181.433471679688	326.66845703125	-510.6351318359375	-986.733642578125	1169.789672851562	-525.2735595703125	-872.3218994140625	858.2447509765625	-666.5261840820312	-881.4490356445312	1036.969116210938	-744.5144653320312	-1485.690063476562	328.1150817871094	-708.282470703125	-750.8427124023438	629.6986083984375	-597.828857421875	-1030.915283203125	1052.006591796875	-550.229736328125	-543.5859985351562	1461.3349609375	-356.639892578125	-1040.1533203125	946.8225708007812	-629.0452270507812	-1112.704833984375	951.0325317382812	-518.2470092773438	-1396.342895507812	126.6131744384766	-683.6041259765625	-1463.140502929688	204.3689270019531	-665.3509521484375	-1464.539794921875	376.0997314453125	-763.8536987304688	-972.2938842773438	41.15591812133789	-533.6923828125	-1388.72119140625	180.9635162353516	-735.5671997070312	-1080.558959960938	687.0878295898438	-361.8260803222656	-885.842041015625	28.03137588500977	-549.343505859375	-792.2734985351562	244.1819305419922	-544.9456787109375	-782.2225341796875	815.2645263671875	-269.0294189453125	-993.97509765625	861.7470703125	-358.5061950683594	-662.2286987304688	788.2493286132812	-579.5191650390625	-837.0923461914062	866.1031494140625	-578.5919189453125	-823.8189697265625	771.7566528320312	-222.8745422363281	-765.5924682617188	737.955810546875	-298.911376953125	-676.4962158203125	484.2015991210938	-517.7742919921875	-632.4705200195312	844.9812622070312	-548.0965576171875	-768.1751708984375	29.90509605407715	-510.9279479980469	-625.7393798828125	775.3886108398438	-479.7585754394531	nan	nan	nan	nan	nan	nan	nan	nan	nan	nan	nan	nan	nan	nan	nan	nan	nan	nan	nan	nan	nan	nan	nan	nan	nan	nan	nan	nan	nan	nan	nan	nan	nan	nan	nan	nan	nan	nan	nan	nan	nan	nan	nan	nan	nan	nan	nan	nan	nan	nan	nan	nan	nan	nan	
15	0.14	-604.6469116210938	1464.342407226562	-225.8512268066406	-609.402099609375	1486.509643554688	-430.8324890136719	-723.6239624023438	1111.460693359375	-392.1064453125	-689.746826171875	1216.211181640625	-379.7821044921875	-874.0733642578125	819.7635498046875	-186.3904571533203	-678.6644897460938	1325.214477539062	-557.0150146484375	-804.460205078125	1349.463500976562	-528.400390625	-985.8135986328125	978.9021606445312	-155.0685119628906	-1000.393920898438	1033.5537109375	-150.9752502441406	-1062.320434570312	1022.404541015625	-169.3704071044922	-716.6250610351562	1494.841430664062	-304.84228515625	-794.72998046875	1383.082641601562	-422.1688537597656	-885.601318359375	1282.567626953125	-217.4489898681641	-720.4769287109375	40.96499633789062	-408.6723022460938	-848.3510131835938	866.816650390625	-249.5346374511719	-823.97119140625	1323.76904296875	-269.4294128417969	-799.9727172851562	47.09814071655273	-408.115234375	-946.9921264648438	1310.66552734375	-388.7675476074219	-695.3751831054688	1219.322143554688	-661.5980834960938	-643.7527465820312	895.697998046875	-536.253173828125	-1068.8310546875	844.5507202148438	-343.0377502441406	-1027.576782226562	391.7616271972656	-391.8424072265625	-640.6194458007812	821.7598876953125	-582.0635986328125	-703.6751708984375	960.251708984375	-681.7642211914062	-736.2030639648438	1025.753295898438	-715.8397216796875	-1125.04150390625	324.7515258789062	-470.8383178710938	-956.9733276367188	1166.05810546875	-509.0401000976562	-843.3411865234375	854.7964477539062	-650.1199951171875	-838.8375854492188	1020.470397949219	-719.950439453125	-1430.093505859375	335.73486328125	-667.6766967773438	-728.7015380859375	618.5270385742188	-579.7451782226562	-1002.59521484375	1048.163452148438	-533.3115844726562	-514.6029663085938	1460.72412109375	-339.8774719238281	-1011.756896972656	943.2325439453125	-611.586181640625	-1084.54052734375	945.1561279296875	-500.4209594726562	-1344.950317382812	132.4341888427734	-636.5634765625	-1409.489013671875	213.1850280761719	-620.0945434570312	-1409.340942382812	380.4556884765625	-725.92236328125	-972.8410034179688	38.72103881835938	-530.86083984375	-1337.408813476562	184.4143981933594	-690.88623046875	-1041.244262695312	683.46044921875	-337.5291442871094	-886.2186889648438	27.22562789916992	-547.40869140625	-786.1693725585938	235.6524047851562	-534.8478393554688	-777.4658203125	809.8336791992188	-240.3862609863281	-962.5504760742188	858.6038208007812	-341.4394836425781	-614.5568237304688	789.7702026367188	-537.855712890625	-806.0082397460938	864.4015502929688	-562.1781005859375	-821.2129516601562	768.9593505859375	-193.9225616455078	-764.1721801757812	730.9780883789062	-268.0693359375	-662.0709838867188	468.9548034667969	-500.8335571289062	-589.0249633789062	848.7359619140625	-507.9802856445312	-768.0924682617188	29.84308433532715	-509.5547790527344	-582.2301025390625	783.1404418945312	-436.4738464355469	nan	nan	nan	nan	nan	nan	nan	nan	nan	nan	nan	nan	nan	nan	nan	nan	nan	nan	nan	nan	nan	nan	nan	nan	nan	nan	nan	nan	nan	nan	nan	nan	nan	nan	nan	nan	nan	nan	nan	nan	nan	nan	nan	nan	nan	nan	nan	nan	nan	nan	nan	nan	nan	nan	
